# xmcd
#
# Track frame offsets:
#	182
#	15880
#	30315
#	43410
#	62012
#	75307
#	93692
#	114990
#	129832
#	146237
#
# Disc length: 2159 seconds
#
# Revision: 0
# Processed by: cddbd v1.5.1PL0 Copyright (c) Steve Scherf et al.
# Submitted via: dBpowerAMP V4.0
#
DISCID=76086d0a
DTITLE=Lena Horne - The Essential Lena horne
DYEAR=1900
DGENRE=Blues
TTITLE0=Rocky Racoon
TTITLE1=Something
TTITLE2=Everybod's Talkin'
TTITLE3=Yesterday When I was Young
TTITLE4=In My Life
TTITLE5=Watch What Happens
TTITLE6=My Mood is You
TTITLE7=Message to Michael
TTITLE8=Nightwind
TTITLE9=The Fool on the Hill
EXTD=
EXTT0=
EXTT1=
EXTT2=
EXTT3=
EXTT4=
EXTT5=
EXTT6=
EXTT7=
EXTT8=
EXTT9=
PLAYORDER=
